HIERARCHY
ROOT joint_Root
{
	OFFSET 0.0 0.0 0.0
	CHANNELS 6 Xposition Yposition Zposition Zrotation Xrotation Yrotation 
	JOINT Hips
	{
		OFFSET 4.5925 91.4895 -427.239
		CHANNELS 6 Xposition Yposition Zposition Zrotation Xrotation Yrotation 
		JOINT Spine
		{
			OFFSET 15.7357 0.0 0.0
			CHANNELS 6 Xposition Yposition Zposition Zrotation Xrotation Yrotation 
			JOINT Chest
			{
				OFFSET 8.98455 -0.406207 0.0
				CHANNELS 6 Xposition Yposition Zposition Zrotation Xrotation Yrotation 
				JOINT Neck
				{
					OFFSET 16.3773 0.0 0.0
					CHANNELS 6 Xposition Yposition Zposition Zrotation Xrotation Yrotation 
					JOINT Head
					{
						OFFSET 6.45672 0.0 0.0
						CHANNELS 6 Xposition Yposition Zposition Zrotation Xrotation Yrotation 
						End Site
						{
							OFFSET 0.0 0.0 0.0
						}
					}
				}
				JOINT Shoulder_L
				{
					OFFSET 12.9942 -0.242716 4.98039
					CHANNELS 6 Xposition Yposition Zposition Zrotation Xrotation Yrotation 
					JOINT UpperArm_L
					{
						OFFSET 5.34809 0.0 0.0
						CHANNELS 6 Xposition Yposition Zposition Zrotation Xrotation Yrotation 
						JOINT LowerArm_L
						{
							OFFSET 24.3286 1.87007e-05 0.0
							CHANNELS 6 Xposition Yposition Zposition Zrotation Xrotation Yrotation 
							JOINT Hand_L
							{
								OFFSET 22.2916 0.0 0.0
								CHANNELS 6 Xposition Yposition Zposition Zrotation Xrotation Yrotation 
								End Site
								{
									OFFSET 0.0 0.0 0.0
								}
							}
						}
					}
				}
				JOINT Shoulder_R
				{
					OFFSET 12.9945 -0.242716 -4.98039
					CHANNELS 6 Xposition Yposition Zposition Zrotation Xrotation Yrotation 
					JOINT UpperArm_R
					{
						OFFSET -5.34813 0.0 0.0
						CHANNELS 6 Xposition Yposition Zposition Zrotation Xrotation Yrotation 
						JOINT LowerArm_R
						{
							OFFSET -24.3289 0.000322201 0.0
							CHANNELS 6 Xposition Yposition Zposition Zrotation Xrotation Yrotation 
							JOINT Hand_R
							{
								OFFSET -22.2915 -0.000108084 0.0
								CHANNELS 6 Xposition Yposition Zposition Zrotation Xrotation Yrotation 
								End Site
								{
									OFFSET 0.0 0.0 0.0
								}
							}
						}
					}
				}
			}
		}
		JOINT UpperLeg_L
		{
			OFFSET -2.19248 -6.46944 0.0
			CHANNELS 6 Xposition Yposition Zposition Zrotation Xrotation Yrotation 
			JOINT LowerLeg_L
			{
				OFFSET 39.0811 0.0 -1.23785e-05
				CHANNELS 6 Xposition Yposition Zposition Zrotation Xrotation Yrotation 
				JOINT Foot_L
				{
					OFFSET 40.9854 0.0 -1.26872e-05
					CHANNELS 6 Xposition Yposition Zposition Zrotation Xrotation Yrotation 
					JOINT Toes_L
					{
						OFFSET 11.7543 0.0 0.0
						CHANNELS 6 Xposition Yposition Zposition Zrotation Xrotation Yrotation 
						End Site
						{
							OFFSET 0.0 0.0 0.0
						}
					}
				}
			}
		}
		JOINT UpperLeg_R
		{
			OFFSET -2.19251 6.46944 0.0
			CHANNELS 6 Xposition Yposition Zposition Zrotation Xrotation Yrotation 
			JOINT LowerLeg_R
			{
				OFFSET -39.0811 -0.00228153 -0.0401928
				CHANNELS 6 Xposition Yposition Zposition Zrotation Xrotation Yrotation 
				JOINT Foot_R
				{
					OFFSET -40.9854 0.0 0.0
					CHANNELS 6 Xposition Yposition Zposition Zrotation Xrotation Yrotation 
					JOINT Toes_R
					{
						OFFSET -11.7543 0.0 0.0
						CHANNELS 6 Xposition Yposition Zposition Zrotation Xrotation Yrotation 
						End Site
						{
							OFFSET 0.0 0.0 0.0
						}
					}
				}
			}
		}
	}
}
MOTION
Frames:	8
Frame Time:	0.0333333
0.000000 0.000000 0.000000 0.000000 0.000000 -0.000000 -2.131290 80.435200 -0.362315 85.562900 -6.275240 14.092300 15.735700 0.000005 -0.000001 79.621300 79.668800 -78.805300 8.984550 -0.406207 -0.000000 12.603600 -3.652660 2.035810 16.377300 -0.000001 -0.000001 -3.774100 1.122540 0.806485 6.456720 -0.000001 -0.000000 -3.430110 6.736750 -6.133840 12.994200 -0.242716 4.980390 -89.864400 -0.492951 -74.610200 5.348090 -0.000007 -0.000001 -67.693300 25.209000 -5.660940 24.328600 0.000019 0.000005 10.253200 14.415300 -36.000900 22.291600 -0.000001 0.000005 14.748300 5.254250 1.318720 12.994500 -0.242716 -4.980390 87.581900 10.437500 -76.878600 -5.348130 -0.000001 -0.000004 -63.355100 15.872900 -13.619700 -24.328900 0.000322 -0.000009 -7.627550 -20.963300 -20.527500 -22.291500 -0.000108 -0.000004 15.701200 5.417170 -3.468990 -2.192480 -6.469440 -0.000000 -166.795000 -13.359900 -12.449300 39.081100 -0.000007 -0.000012 -0.541395 0.226767 67.274500 40.985400 -0.000006 -0.000013 0.564728 6.433940 -89.358000 11.754300 -0.000000 0.000003 -0.000349 -0.002954 -16.687000 -2.192510 6.469440 -0.000001 -178.222000 8.813210 167.466000 -39.081100 -0.002282 -0.040193 0.096855 -0.042250 65.728300 -40.985400 0.000008 0.000006 8.655490 2.245250 -88.721400 -11.754300 -0.000006 -0.000006 -0.001434 -0.021393 -17.443000
0.000000 0.000000 0.000000 0.000000 0.000000 -0.000000 -2.979920 81.703200 -0.033281 85.055800 -4.025490 13.973300 15.735700 0.000005 -0.000001 81.045500 80.366500 -81.444900 8.984550 -0.406207 -0.000000 11.267000 -2.987720 -0.503791 16.377300 -0.000001 -0.000001 -3.279460 0.611859 0.250926 6.456720 -0.000001 -0.000000 -2.682960 4.635970 -4.291040 12.994200 -0.242716 4.980390 -90.043700 0.149512 -73.722100 5.348090 -0.000007 -0.000001 -66.622500 20.504300 -7.268620 24.328600 0.000019 0.000005 8.332810 12.904900 -33.254200 22.291600 -0.000001 0.000005 15.916700 5.233290 1.864480 12.994500 -0.242716 -4.980390 87.703900 9.906390 -76.880600 -5.348130 -0.000001 -0.000004 -61.533200 12.420800 -11.712000 -24.328900 0.000322 -0.000009 -5.016050 -21.781900 -13.301900 -22.291500 -0.000108 -0.000004 12.551800 5.361770 -1.716830 -2.192480 -6.469440 -0.000000 -166.238000 -11.302600 -11.355500 39.081100 -0.000007 -0.000012 -0.534880 0.261680 63.931900 40.985400 -0.000006 -0.000013 0.031442 7.112030 -87.566200 11.754300 -0.000000 0.000003 -0.000339 -0.002881 -16.684400 -2.192510 6.469440 -0.000001 -177.722000 11.293300 169.654000 -39.081100 -0.002282 -0.040193 0.099106 -0.051050 61.976900 -40.985400 0.000008 0.000006 8.942720 2.319640 -87.249600 -11.754300 -0.000006 -0.000006 -0.004230 -0.025182 -17.465900
0.000000 0.000000 0.000000 0.000000 0.000000 -0.000000 -3.712350 83.736700 0.228866 84.841300 -1.503860 12.766700 15.735700 0.000005 -0.000001 82.447900 81.449800 -84.385200 8.984550 -0.406207 -0.000000 9.155870 -2.258770 -3.690670 16.377300 -0.000001 -0.000001 -2.131980 -0.059590 -0.114322 6.456720 -0.000001 -0.000000 -2.251640 2.484200 -1.501000 12.994200 -0.242716 4.980390 -90.089000 0.284305 -72.622700 5.348090 -0.000007 -0.000001 -65.793500 16.862300 -8.674560 24.328600 0.000019 0.000005 5.223750 8.790570 -30.884400 22.291600 -0.000001 0.000005 17.307200 5.227940 2.009050 12.994500 -0.242716 -4.980390 87.987900 8.552290 -76.707200 -5.348130 -0.000001 -0.000004 -57.596300 5.332790 -9.656100 -24.328900 0.000322 -0.000009 -3.372100 -22.334100 -8.811670 -22.291500 -0.000108 -0.000004 10.328400 5.318980 -0.459000 -2.192480 -6.469440 -0.000000 -166.428000 -9.401330 -10.425200 39.081100 -0.000007 -0.000012 -0.500514 0.309997 58.228800 40.985400 -0.000006 -0.000013 -0.545924 7.617970 -84.455600 11.754300 -0.000000 0.000003 -0.000296 -0.002571 -16.673400 -2.192510 6.469440 -0.000001 -177.280000 13.520200 171.634000 -39.081100 -0.002282 -0.040193 0.092172 -0.060193 55.913500 -40.985400 0.000008 0.000006 8.867270 2.482170 -84.361700 -11.754300 -0.000006 -0.000006 -0.114077 -0.156506 -17.591100
0.000000 0.000000 0.000000 0.000000 0.000000 -0.000000 -4.099060 85.990900 0.368369 84.913900 0.397637 10.769500 15.735700 0.000005 -0.000001 82.633800 82.710700 -86.059500 8.984550 -0.406207 -0.000000 6.649250 -1.830090 -6.737800 16.377300 -0.000001 -0.000001 -0.589341 -0.369615 -0.411137 6.456720 -0.000001 -0.000000 -1.838620 1.303350 0.878035 12.994200 -0.242716 4.980390 -90.153400 0.457768 -71.479700 5.348090 -0.000007 -0.000001 -64.784400 14.173300 -9.027730 24.328600 0.000019 0.000005 3.620340 6.369330 -29.696800 22.291600 -0.000001 0.000005 17.784600 5.241260 1.662630 12.994500 -0.242716 -4.980390 88.412200 6.380220 -75.991700 -5.348130 -0.000001 -0.000004 -50.586100 -5.379730 -10.681200 -24.328900 0.000322 -0.000009 -2.158830 -22.983300 -5.511680 -22.291500 -0.000108 -0.000004 10.047200 5.267140 0.970927 -2.192480 -6.469440 -0.000000 -166.903000 -8.996710 -9.518830 39.081100 -0.000007 -0.000012 -0.415333 0.333189 51.263600 40.985400 -0.000006 -0.000013 -0.768434 8.459760 -80.677500 11.754300 -0.000000 0.000003 -0.000256 -0.002280 -16.662900 -2.192510 6.469440 -0.000001 -177.124000 15.440000 173.199000 -39.081100 -0.002282 -0.040193 0.077127 -0.064863 48.716600 -40.985400 0.000008 0.000006 8.721720 3.381800 -80.672800 -11.754300 -0.000006 -0.000006 -0.048446 -0.086401 -17.924000
0.000000 0.000000 0.000000 0.000000 0.000000 -0.000000 -4.043350 87.863600 0.329854 84.896800 1.171050 8.806210 15.735700 0.000005 -0.000001 81.483200 83.885500 -85.779900 8.984550 -0.406207 -0.000000 4.281260 -1.678040 -8.521200 16.377300 -0.000001 -0.000001 0.788326 -0.368659 -0.859020 6.456720 -0.000001 -0.000000 -0.909022 1.086420 2.056100 12.994200 -0.242716 4.980390 -90.319100 0.889789 -70.276300 5.348090 -0.000007 -0.000001 -64.076600 12.356100 -8.341210 24.328600 0.000019 0.000005 3.903330 7.133640 -28.787700 22.291600 -0.000001 0.000005 17.567800 5.239760 1.701960 12.994500 -0.242716 -4.980390 89.071300 3.580900 -75.449200 -5.348130 -0.000001 -0.000004 -40.934100 -18.010100 -15.102200 -24.328900 0.000322 -0.000009 -2.345160 -26.080100 -5.316290 -22.291500 -0.000108 -0.000004 11.515800 5.262800 1.094420 -2.192480 -6.469440 -0.000000 -167.363000 -9.533330 -8.597280 39.081100 -0.000007 -0.000012 -0.340008 0.341516 44.874000 40.985400 -0.000006 -0.000013 -0.799647 9.085380 -77.265800 11.754300 -0.000000 0.000003 -0.000201 -0.001860 -16.647700 -2.192510 6.469440 -0.000001 -177.454000 18.016100 174.528000 -39.081100 -0.002282 -0.040193 0.056604 -0.059148 42.039600 -40.985400 0.000008 0.000006 8.537070 6.227160 -77.132700 -11.754300 -0.000006 -0.000006 -0.003310 -0.044056 -18.364900
0.000000 0.000000 0.000000 0.000000 0.000000 -0.000000 -3.604270 89.182600 0.131344 85.161500 0.588248 7.142290 15.735700 0.000005 -0.000001 81.050900 84.909800 -85.624700 8.984550 -0.406207 -0.000000 2.253070 -1.363010 -9.111980 16.377300 -0.000001 -0.000001 2.103750 -0.243374 -1.033090 6.456720 -0.000001 -0.000000 -0.263059 1.287190 1.887180 12.994200 -0.242716 4.980390 -90.622900 1.646750 -69.280300 5.348090 -0.000007 -0.000001 -63.556700 11.606200 -7.067340 24.328600 0.000019 0.000005 4.271380 8.325250 -27.286800 22.291600 -0.000001 0.000005 17.085700 5.227560 2.018870 12.994500 -0.242716 -4.980390 89.901300 0.390784 -75.900500 -5.348130 -0.000001 -0.000004 -30.029700 -31.448500 -20.678600 -24.328900 0.000322 -0.000009 -5.670460 -32.724300 -10.393300 -22.291500 -0.000108 -0.000004 11.827600 5.346590 -1.275910 -2.192480 -6.469440 -0.000000 -168.274000 -10.583500 -7.739250 39.081100 -0.000007 -0.000012 -0.279399 0.335151 39.816800 40.985400 -0.000006 -0.000013 -0.807171 8.900860 -74.628700 11.754300 -0.000000 0.000003 -0.000190 -0.001777 -16.644700 -2.192510 6.469440 -0.000001 -178.369000 20.356700 175.259000 -39.081100 -0.002282 -0.040193 0.038287 -0.046324 37.073600 -40.985400 0.000008 0.000006 8.329710 10.266400 -74.240800 -11.754300 -0.000006 -0.000006 -0.004280 -0.054317 -18.782700
0.000000 0.000000 0.000000 0.000000 0.000000 -0.000000 -3.009640 89.985100 -0.131481 85.708200 -0.662585 6.242880 15.735700 0.000005 -0.000001 81.501100 85.389900 -85.948600 8.984550 -0.406207 -0.000000 1.325690 -1.112600 -8.874510 16.377300 -0.000001 -0.000001 2.655990 0.001725 -0.492150 6.456720 -0.000001 -0.000000 -0.222267 1.754680 0.857258 12.994200 -0.242716 4.980390 -90.959300 2.441000 -68.539500 5.348090 -0.000007 -0.000001 -63.299700 11.181500 -5.864300 24.328600 0.000019 0.000005 4.303350 9.090640 -25.467900 22.291600 -0.000001 0.000005 16.164500 5.234150 1.847580 12.994500 -0.242716 -4.980390 91.043500 -4.480780 -76.870700 -5.348130 -0.000001 -0.000004 -19.951100 -43.598300 -25.036600 -24.328900 0.000322 -0.000009 -13.703100 -37.031000 -22.031700 -22.291500 -0.000108 -0.000004 14.209600 5.451540 -4.628810 -2.192480 -6.469440 -0.000000 -169.398000 -11.755600 -6.759720 39.081100 -0.000007 -0.000012 -0.241928 0.329178 36.314400 40.985400 -0.000006 -0.000013 -0.705097 8.405030 -72.852600 11.754300 -0.000000 0.000003 -0.000176 -0.001660 -16.640400 -2.192510 6.469440 -0.000001 -179.320000 20.897400 175.784000 -39.081100 -0.002282 -0.040193 0.026886 -0.035199 33.832500 -40.985400 0.000008 0.000006 8.023850 12.722500 -72.448900 -11.754300 -0.000006 -0.000006 -0.004727 -0.058798 -18.965300
0.000000 0.000000 0.000000 0.000000 0.000000 -0.000000 -2.561120 90.459500 -0.598371 86.308600 -1.761430 5.439280 15.735700 0.000005 -0.000001 82.033000 85.609900 -86.183800 8.984550 -0.406207 -0.000000 0.908188 -0.968529 -8.287250 16.377300 -0.000001 -0.000001 2.774140 -0.264583 1.357800 6.456720 -0.000001 -0.000000 -0.638441 2.729330 -1.225900 12.994200 -0.242716 4.980390 -91.110900 2.792590 -68.297800 5.348090 -0.000007 -0.000001 -63.228600 11.001100 -4.666050 24.328600 0.000019 0.000005 4.844510 10.838400 -24.263700 22.291600 -0.000001 0.000005 14.972100 5.217580 2.276440 12.994500 -0.242716 -4.980390 92.487500 -10.008700 -75.973200 -5.348130 -0.000001 -0.000004 -10.951900 -54.321600 -28.297200 -24.328900 0.000322 -0.000009 -21.724600 -32.601000 -36.501800 -22.291500 -0.000108 -0.000004 19.354000 5.532320 -7.828660 -2.192480 -6.469440 -0.000000 -170.487000 -12.849400 -6.539770 39.081100 -0.000007 -0.000012 -0.216032 0.319484 34.066600 40.985400 -0.000006 -0.000013 -0.575031 8.059010 -71.532200 11.754300 -0.000000 0.000003 -0.000172 -0.001627 -16.639200 -2.192510 6.469440 -0.000001 -179.513000 19.435500 175.463000 -39.081100 -0.002282 -0.040193 0.026553 -0.037441 31.844800 -40.985400 0.000008 0.000006 8.050000 12.425200 -71.491200 -11.754300 -0.000006 -0.000006 -0.005139 -0.062807 -19.128600
